<svg width="48" height="48" viewBox="0 0 48 48" fill="none" xmlns="http://www.w3.org/2000/svg">
<path d="M15.2956 36.352C13.5676 36.352 12.1063 36.0213 10.9116 35.36C9.71696 34.6987 8.75163 33.8133 8.01562 32.704C7.29029 31.584 6.76229 30.3413 6.43163 28.976C6.10096 27.6 5.93563 26.208 5.93563 24.8C5.93563 23.4453 6.10629 22.0853 6.44763 20.72C6.78896 19.3547 7.32763 18.1067 8.06363 16.976C8.79963 15.8453 9.76496 14.9387 10.9596 14.256C12.1543 13.5627 13.5996 13.216 15.2956 13.216C16.693 13.216 17.8983 13.44 18.9116 13.888C19.925 14.336 20.7623 14.912 21.4236 15.616C22.0956 16.32 22.6023 17.0613 22.9436 17.84L19.6476 19.408C19.285 18.8747 18.9063 18.4053 18.5116 18C18.117 17.5947 17.6583 17.28 17.1356 17.056C16.6236 16.832 16.0103 16.72 15.2956 16.72C14.261 16.72 13.3863 16.9653 12.6716 17.456C11.957 17.9467 11.3863 18.592 10.9596 19.392C10.5436 20.192 10.2396 21.0667 10.0476 22.016C9.85563 22.9547 9.75963 23.8827 9.75963 24.8C9.75963 25.7707 9.86629 26.736 10.0796 27.696C10.293 28.6453 10.6236 29.5093 11.0716 30.288C11.5196 31.056 12.0903 31.6747 12.7836 32.144C13.4876 32.6027 14.325 32.832 15.2956 32.832C16.341 32.832 17.205 32.5707 17.8876 32.048C18.581 31.5147 19.1836 30.8267 19.6956 29.984L23.0716 31.248C22.6236 32.2187 22.0476 33.088 21.3436 33.856C20.6396 34.624 19.7863 35.232 18.7836 35.68C17.7916 36.128 16.629 36.352 15.2956 36.352ZM27.0816 36V13.6H41.6096V17.088H30.7776V22.688H37.4176V26.176H30.7776V32.48H42.2816V36H27.0816Z" fill="black"/>
</svg>
