<svg width="48" height="48" viewBox="0 0 48 48" fill="none" xmlns="http://www.w3.org/2000/svg">
<path d="M23.9812 34.432C22.2052 34.432 20.6572 34.102 19.3372 33.442C18.0172 32.77 16.9912 31.84 16.2592 30.652C15.5392 29.464 15.1792 28.096 15.1792 26.548C15.1792 25.048 15.5632 23.752 16.3312 22.66C17.1112 21.556 18.1432 20.728 19.4272 20.176C18.8272 19.876 18.2812 19.474 17.7892 18.97C17.3092 18.466 16.9252 17.884 16.6372 17.224C16.3612 16.552 16.2232 15.802 16.2232 14.974C16.2232 13.714 16.5412 12.586 17.1772 11.59C17.8132 10.594 18.7072 9.808 19.8592 9.232C21.0232 8.656 22.3972 8.368 23.9812 8.368C25.5652 8.368 26.9392 8.656 28.1032 9.232C29.2792 9.808 30.1852 10.594 30.8212 11.59C31.4572 12.586 31.7752 13.714 31.7752 14.974C31.7752 15.79 31.6312 16.534 31.3432 17.206C31.0552 17.866 30.6652 18.448 30.1732 18.952C29.6812 19.444 29.1352 19.84 28.5352 20.14C29.8192 20.692 30.8572 21.526 31.6492 22.642C32.4412 23.758 32.8372 25.06 32.8372 26.548C32.8372 28.096 32.4712 29.464 31.7392 30.652C31.0072 31.84 29.9752 32.77 28.6432 33.442C27.3232 34.102 25.7692 34.432 23.9812 34.432ZM23.9812 30.652C24.8812 30.652 25.6792 30.478 26.3752 30.13C27.0832 29.77 27.6352 29.272 28.0312 28.636C28.4392 28 28.6432 27.25 28.6432 26.386C28.6432 25.57 28.4452 24.838 28.0492 24.19C27.6532 23.542 27.1012 23.032 26.3932 22.66C25.6972 22.288 24.8932 22.102 23.9812 22.102C23.0572 22.102 22.2472 22.288 21.5512 22.66C20.8552 23.032 20.3152 23.542 19.9312 24.19C19.5472 24.838 19.3552 25.57 19.3552 26.386C19.3552 27.25 19.5472 28 19.9312 28.636C20.3272 29.272 20.8732 29.77 21.5692 30.13C22.2652 30.478 23.0692 30.652 23.9812 30.652ZM23.9812 18.484C25.0732 18.484 25.9552 18.184 26.6272 17.584C27.3112 16.972 27.6532 16.21 27.6532 15.298C27.6532 14.338 27.3112 13.558 26.6272 12.958C25.9432 12.358 25.0612 12.058 23.9812 12.058C22.9012 12.058 22.0252 12.358 21.3532 12.958C20.6812 13.558 20.3452 14.338 20.3452 15.298C20.3452 16.21 20.6692 16.972 21.3172 17.584C21.9772 18.184 22.8652 18.484 23.9812 18.484Z" fill="black"/>
</svg>
