<svg width="48" height="48" viewBox="0 0 48 48" fill="none" xmlns="http://www.w3.org/2000/svg">
<path d="M23.1854 34.432C21.8894 34.432 20.7254 34.294 19.6934 34.018C18.6614 33.754 17.7674 33.424 17.0114 33.028C16.2674 32.62 15.6614 32.2 15.1934 31.768L17.4794 28.546C17.9354 28.894 18.4334 29.224 18.9734 29.536C19.5134 29.836 20.1254 30.082 20.8094 30.274C21.4934 30.466 22.2794 30.562 23.1674 30.562C24.2114 30.562 25.1354 30.358 25.9394 29.95C26.7434 29.542 27.3674 28.978 27.8114 28.258C28.2674 27.526 28.4954 26.68 28.4954 25.72C28.4954 24.856 28.3274 24.094 27.9914 23.434C27.6674 22.762 27.1874 22.24 26.5514 21.868C25.9274 21.496 25.1834 21.31 24.3194 21.31C23.2634 21.31 22.3694 21.496 21.6374 21.868C20.9054 22.24 20.2874 22.702 19.7834 23.254L16.0034 21.58L17.0834 8.8H31.0874V12.742H20.8274L20.1974 18.574C20.7974 18.202 21.4634 17.908 22.1954 17.692C22.9274 17.476 23.7014 17.368 24.5174 17.368C26.2454 17.368 27.7154 17.74 28.9274 18.484C30.1514 19.216 31.0874 20.206 31.7354 21.454C32.3834 22.702 32.7074 24.094 32.7074 25.63C32.7074 27.334 32.3054 28.852 31.5014 30.184C30.7094 31.504 29.5934 32.542 28.1534 33.298C26.7254 34.054 25.0694 34.432 23.1854 34.432Z" fill="black"/>
</svg>
