<svg width="48" height="48" viewBox="0 0 48 48" fill="none" xmlns="http://www.w3.org/2000/svg">
<path d="M11.528 23V10.172H8.876V8.072C9.42 8.072 9.908 8.016 10.34 7.904C10.772 7.784 11.14 7.588 11.444 7.316C11.756 7.044 11.992 6.672 12.152 6.2H14.3V23H11.528Z" fill="black"/>
<path d="M16.736 33.12L26.192 12.912H28.928L19.496 33.12H16.736Z" fill="black"/>
<path d="M26.822 39L31.166 32.64L27.122 26.736H30.194L31.982 29.352C32.118 29.536 32.25 29.732 32.378 29.94C32.514 30.148 32.622 30.34 32.702 30.516C32.806 30.332 32.922 30.14 33.05 29.94C33.178 29.732 33.306 29.536 33.434 29.352L35.222 26.736H38.306L34.25 32.64L38.606 39H35.522L33.422 35.928C33.294 35.736 33.166 35.54 33.038 35.34C32.918 35.132 32.806 34.94 32.702 34.764C32.622 34.94 32.514 35.132 32.378 35.34C32.242 35.54 32.11 35.736 31.982 35.928L29.894 39H26.822Z" fill="black"/>
</svg>
