<svg width="48" height="48" viewBox="0 0 48 48" fill="none" xmlns="http://www.w3.org/2000/svg">
<path d="M19.0248 34.432V30.598C20.3448 30.442 21.6108 30.064 22.8228 29.464C24.0348 28.864 25.0908 28.018 25.9908 26.926C26.8908 25.834 27.5268 24.478 27.8988 22.858C27.3948 23.35 26.7348 23.758 25.9188 24.082C25.1028 24.394 24.1608 24.55 23.0928 24.55C21.5328 24.55 20.1348 24.22 18.8988 23.56C17.6748 22.888 16.7088 21.952 16.0008 20.752C15.2928 19.552 14.9388 18.148 14.9388 16.54C14.9388 14.92 15.3228 13.498 16.0908 12.274C16.8588 11.038 17.9088 10.078 19.2408 9.394C20.5728 8.71 22.1028 8.368 23.8308 8.368C25.8588 8.368 27.5268 8.794 28.8348 9.646C30.1428 10.486 31.1148 11.644 31.7508 13.12C32.3868 14.584 32.7048 16.252 32.7048 18.124C32.7048 21.1 32.1888 23.77 31.1568 26.134C30.1248 28.498 28.5888 30.412 26.5488 31.876C24.5208 33.328 22.0128 34.18 19.0248 34.432ZM23.7408 20.716C24.6408 20.716 25.4328 20.542 26.1168 20.194C26.8008 19.846 27.3288 19.354 27.7008 18.718C28.0848 18.082 28.2768 17.32 28.2768 16.432C28.2768 15.616 28.0848 14.89 27.7008 14.254C27.3168 13.618 26.7828 13.12 26.0988 12.76C25.4148 12.4 24.6348 12.22 23.7588 12.22C22.7988 12.22 21.9708 12.4 21.2748 12.76C20.5788 13.12 20.0328 13.618 19.6368 14.254C19.2528 14.878 19.0608 15.598 19.0608 16.414C19.0608 17.302 19.2468 18.07 19.6188 18.718C20.0028 19.366 20.5428 19.864 21.2388 20.212C21.9468 20.548 22.7808 20.716 23.7408 20.716Z" fill="black"/>
</svg>
