<svg width="48" height="48" viewBox="0 0 48 48" fill="none" xmlns="http://www.w3.org/2000/svg">
<path d="M24.2448 34.432C22.7808 34.432 21.4908 34.186 20.3748 33.694C19.2708 33.202 18.3408 32.518 17.5848 31.642C16.8408 30.754 16.2768 29.722 15.8928 28.546C15.5208 27.37 15.3348 26.092 15.3348 24.712C15.3348 22.096 15.8568 19.654 16.9008 17.386C17.9568 15.118 19.5348 13.192 21.6348 11.608C23.7348 10.024 26.3628 8.944 29.5188 8.368V12.184C28.1868 12.46 26.8908 12.934 25.6308 13.606C24.3828 14.266 23.2848 15.112 22.3368 16.144C21.4008 17.176 20.7228 18.364 20.3028 19.708C20.8068 19.24 21.4548 18.862 22.2468 18.574C23.0388 18.274 23.9448 18.124 24.9648 18.124C26.4888 18.124 27.8568 18.478 29.0688 19.186C30.2808 19.894 31.2348 20.86 31.9308 22.084C32.6268 23.296 32.9748 24.664 32.9748 26.188C32.9748 27.796 32.5968 29.224 31.8408 30.472C31.0848 31.708 30.0468 32.68 28.7268 33.388C27.4188 34.084 25.9248 34.432 24.2448 34.432ZM24.2268 30.508C25.1268 30.508 25.9248 30.34 26.6208 30.004C27.3168 29.656 27.8628 29.164 28.2588 28.528C28.6548 27.892 28.8528 27.148 28.8528 26.296C28.8528 25 28.4208 23.962 27.5568 23.182C26.7048 22.402 25.5948 22.012 24.2268 22.012C23.3268 22.012 22.5228 22.192 21.8148 22.552C21.1188 22.912 20.5668 23.416 20.1588 24.064C19.7628 24.7 19.5648 25.444 19.5648 26.296C19.5648 27.148 19.7688 27.892 20.1768 28.528C20.5848 29.164 21.1368 29.656 21.8328 30.004C22.5408 30.34 23.3388 30.508 24.2268 30.508Z" fill="black"/>
</svg>
