<svg width="48" height="48" viewBox="0 0 48 48" fill="none" xmlns="http://www.w3.org/2000/svg">
<path d="M11.44 34L5.6 22.944H9.424L12.512 28.912L17.488 11.6H21.216L14.368 34H11.44Z" fill="black"/>
<path d="M20.8594 34L26.6514 25.52L21.2594 17.648H25.3554L27.7394 21.136C27.9208 21.3813 28.0968 21.6427 28.2674 21.92C28.4488 22.1973 28.5928 22.4533 28.6994 22.688C28.8381 22.4427 28.9928 22.1867 29.1634 21.92C29.3341 21.6427 29.5048 21.3813 29.6754 21.136L32.0594 17.648H36.1714L30.7634 25.52L36.5714 34H32.4594L29.6594 29.904C29.4888 29.648 29.3181 29.3867 29.1474 29.12C28.9874 28.8427 28.8381 28.5867 28.6994 28.352C28.5928 28.5867 28.4488 28.8427 28.2674 29.12C28.0861 29.3867 27.9101 29.648 27.7394 29.904L24.9554 34H20.8594Z" fill="black"/>
</svg>
