<svg width="48" height="48" viewBox="0 0 48 48" fill="none" xmlns="http://www.w3.org/2000/svg">
<path d="M29.33 26C29.33 25.0133 29.4567 24.1433 29.71 23.39C29.9633 22.63 30.3067 21.9633 30.74 21.39C31.18 20.8167 31.68 20.3133 32.24 19.88C32.8067 19.44 33.4 19.0433 34.02 18.69C34.4333 18.4433 34.8233 18.1867 35.19 17.92C35.5567 17.6533 35.8533 17.3533 36.08 17.02C36.3133 16.6867 36.43 16.3 36.43 15.86C36.43 15.2933 36.23 14.83 35.83 14.47C35.43 14.1033 34.8933 13.92 34.22 13.92C33.5333 13.92 32.98 14.0833 32.56 14.41C32.14 14.73 31.82 15.16 31.6 15.7L29.55 14.77C29.89 13.87 30.48 13.1433 31.32 12.59C32.16 12.0367 33.13 11.76 34.23 11.76C35.1767 11.76 35.9867 11.9367 36.66 12.29C37.34 12.6433 37.8567 13.13 38.21 13.75C38.57 14.3633 38.75 15.06 38.75 15.84C38.75 16.6533 38.59 17.34 38.27 17.9C37.9567 18.4533 37.5367 18.9367 37.01 19.35C36.4833 19.7567 35.9033 20.1467 35.27 20.52C34.6767 20.8667 34.16 21.2033 33.72 21.53C33.28 21.85 32.9167 22.19 32.63 22.55C32.3433 22.91 32.1367 23.3167 32.01 23.77H38.87V26H29.33Z" fill="black"/>
<path d="M12.8594 36L18.6514 27.52L13.2594 19.648H17.3554L19.7394 23.136C19.9208 23.3813 20.0968 23.6427 20.2674 23.92C20.4488 24.1973 20.5928 24.4533 20.6994 24.688C20.8381 24.4427 20.9928 24.1867 21.1634 23.92C21.3341 23.6427 21.5048 23.3813 21.6754 23.136L24.0594 19.648H28.1714L22.7634 27.52L28.5714 36H24.4594L21.6594 31.904C21.4888 31.648 21.3181 31.3867 21.1474 31.12C20.9874 30.8427 20.8381 30.5867 20.6994 30.352C20.5928 30.5867 20.4488 30.8427 20.2674 31.12C20.0861 31.3867 19.9101 31.648 19.7394 31.904L16.9554 36H12.8594Z" fill="black"/>
</svg>
