<svg width="48" height="48" viewBox="0 0 48 48" fill="none" xmlns="http://www.w3.org/2000/svg">
<path d="M23.7735 34.432C21.6615 34.432 19.8495 33.922 18.3375 32.902C16.8255 31.882 15.6975 30.424 14.9535 28.528L18.7335 26.98C19.8135 29.32 21.4935 30.49 23.7735 30.49C25.1535 30.49 26.2395 30.154 27.0315 29.482C27.8235 28.81 28.2195 27.904 28.2195 26.764C28.2195 25.624 27.8235 24.724 27.0315 24.064C26.2395 23.404 25.1655 23.074 23.8095 23.074H21.5955V19.132H23.7015C24.8055 19.132 25.6815 18.82 26.3295 18.196C26.9895 17.56 27.3195 16.726 27.3195 15.694C27.3195 14.674 26.9895 13.852 26.3295 13.228C25.6695 12.604 24.8055 12.292 23.7375 12.292C22.8375 12.292 22.0215 12.526 21.2895 12.994C20.5695 13.462 19.9815 14.158 19.5255 15.082L15.7455 13.624C16.4655 11.956 17.5275 10.666 18.9315 9.754C20.3475 8.83 21.9615 8.368 23.7735 8.368C25.2855 8.368 26.6235 8.668 27.7875 9.268C28.9515 9.856 29.8635 10.672 30.5235 11.716C31.1835 12.748 31.5135 13.942 31.5135 15.298C31.5135 16.45 31.2375 17.512 30.6855 18.484C30.1455 19.456 29.3835 20.23 28.3995 20.806C29.6595 21.31 30.6435 22.114 31.3515 23.218C32.0595 24.322 32.4135 25.594 32.4135 27.034C32.4135 28.474 32.0415 29.752 31.2975 30.868C30.5655 31.972 29.5515 32.842 28.2555 33.478C26.9595 34.114 25.4655 34.432 23.7735 34.432Z" fill="black"/>
</svg>
