<svg width="48" height="48" viewBox="0 0 48 48" fill="none" xmlns="http://www.w3.org/2000/svg">
<path d="M15.3901 34C15.3901 32.224 15.6181 30.658 16.0741 29.302C16.5301 27.934 17.1481 26.734 17.9281 25.702C18.7201 24.67 19.6201 23.764 20.6281 22.984C21.6481 22.192 22.7161 21.478 23.8321 20.842C24.5761 20.398 25.2781 19.936 25.9381 19.456C26.5981 18.976 27.1321 18.436 27.5401 17.836C27.9601 17.236 28.1701 16.54 28.1701 15.748C28.1701 14.728 27.8101 13.894 27.0901 13.246C26.3701 12.586 25.4041 12.256 24.1921 12.256C22.9561 12.256 21.9601 12.55 21.2041 13.138C20.4481 13.714 19.8721 14.488 19.4761 15.46L15.7861 13.786C16.3981 12.166 17.4601 10.858 18.9721 9.862C20.4841 8.866 22.2301 8.368 24.2101 8.368C25.9141 8.368 27.3721 8.686 28.5841 9.322C29.8081 9.958 30.7381 10.834 31.3741 11.95C32.0221 13.054 32.3461 14.308 32.3461 15.712C32.3461 17.176 32.0581 18.412 31.4821 19.42C30.9181 20.416 30.1621 21.286 29.2141 22.03C28.2661 22.762 27.2221 23.464 26.0821 24.136C25.0141 24.76 24.0841 25.366 23.2921 25.954C22.5001 26.53 21.8461 27.142 21.3301 27.79C20.8141 28.438 20.4421 29.17 20.2141 29.986H32.5621V34H15.3901Z" fill="black"/>
</svg>
