<svg width="48" height="48" viewBox="0 0 48 48" fill="none" xmlns="http://www.w3.org/2000/svg">
<path d="M23.9938 34.432C22.2418 34.432 20.7778 34.054 19.6018 33.298C18.4258 32.53 17.4958 31.516 16.8118 30.256C16.1278 28.984 15.6358 27.58 15.3358 26.044C15.0478 24.496 14.9038 22.948 14.9038 21.4C14.9038 20.212 14.9878 19.006 15.1558 17.782C15.3358 16.546 15.6298 15.37 16.0378 14.254C16.4458 13.126 16.9978 12.124 17.6938 11.248C18.3898 10.36 19.2538 9.658 20.2858 9.142C21.3298 8.626 22.5658 8.368 23.9938 8.368C25.7578 8.368 27.2218 8.746 28.3858 9.502C29.5618 10.258 30.4918 11.272 31.1758 12.544C31.8718 13.804 32.3638 15.202 32.6518 16.738C32.9518 18.274 33.1018 19.828 33.1018 21.4C33.1018 22.576 33.0118 23.782 32.8318 25.018C32.6518 26.242 32.3518 27.418 31.9318 28.546C31.5238 29.662 30.9718 30.664 30.2758 31.552C29.5798 32.44 28.7158 33.142 27.6838 33.658C26.6518 34.174 25.4218 34.432 23.9938 34.432ZM23.9938 30.508C24.9658 30.508 25.7698 30.244 26.4058 29.716C27.0418 29.176 27.5338 28.462 27.8818 27.574C28.2418 26.686 28.4938 25.708 28.6378 24.64C28.7818 23.56 28.8538 22.48 28.8538 21.4C28.8538 20.272 28.7758 19.168 28.6198 18.088C28.4758 16.996 28.2238 16.012 27.8638 15.136C27.5038 14.26 27.0058 13.564 26.3698 13.048C25.7458 12.52 24.9538 12.256 23.9938 12.256C23.0218 12.256 22.2118 12.526 21.5638 13.066C20.9278 13.606 20.4298 14.32 20.0698 15.208C19.7098 16.096 19.4518 17.08 19.2958 18.16C19.1518 19.24 19.0798 20.32 19.0798 21.4C19.0798 22.528 19.1578 23.638 19.3138 24.73C19.4698 25.81 19.7278 26.788 20.0878 27.664C20.4598 28.528 20.9638 29.218 21.5998 29.734C22.2358 30.25 23.0338 30.508 23.9938 30.508Z" fill="black"/>
</svg>
